<svg width="10" height="11" viewBox="0 0 10 11" fill="none" xmlns="http://www.w3.org/2000/svg">
<path fill-rule="evenodd" clip-rule="evenodd" d="M0.229935 0.827103C0.46425 0.592789 0.844149 0.592789 1.07846 0.827103L9.64989 9.39853C9.8842 9.63284 9.8842 10.0127 9.64989 10.2471C9.41558 10.4814 9.03568 10.4814 8.80136 10.2471L0.229935 1.67563C-0.00437941 1.44132 -0.00437941 1.06142 0.229935 0.827103Z" fill="#333333"/>
<path fill-rule="evenodd" clip-rule="evenodd" d="M9.65044 0.827103C9.88475 1.06142 9.88475 1.44132 9.65044 1.67563L1.07901 10.2471C0.844693 10.4814 0.464794 10.4814 0.230479 10.2471C-0.00383609 10.0127 -0.00383607 9.63285 0.230479 9.39853L8.80191 0.827103C9.03622 0.592789 9.41612 0.592789 9.65044 0.827103Z" fill="#333333"/>
</svg>
