<svg width="67" height="32" viewBox="0 0 67 32" fill="none" xmlns="http://www.w3.org/2000/svg">
<rect x="0.413818" y="0.635986" width="66.1722" height="30.7281" rx="15.364" fill="white"/>
<path d="M25.4804 15.4273C24.9829 15.0798 24.4194 14.8379 23.8248 14.7165C23.2302 14.5952 22.617 14.597 22.0231 14.7219C21.4292 14.8467 20.8672 15.092 20.3718 15.4425C19.8764 15.793 19.458 16.2413 19.1426 16.7597C18.6849 17.5004 18.0196 18.0901 17.2294 18.4557C16.4393 18.8213 15.559 18.9466 14.6982 18.816C13.8374 18.6854 13.034 18.3046 12.3878 17.7211C11.7417 17.1376 11.2813 16.377 11.0639 15.5339V15.5339V15.4851V15.4273C10.8945 14.8509 10.8166 14.2514 10.8329 13.6508C10.8329 9.65362 14.9367 5.21231 20.8436 5.21231C26.8927 5.21231 30.3525 9.81795 31.2452 12.3761L31.2008 12.2429C30.2229 9.39066 28.265 6.97775 25.6753 5.43347C23.0856 3.88918 20.032 3.31365 17.0578 3.80926C14.0836 4.30487 11.3816 5.83949 9.43263 8.14009C7.48361 10.4407 6.41391 13.3581 6.41382 16.3733C6.41382 22.6622 10.944 28.0451 17.2373 28.0451C22.2515 28.0451 25.6269 25.2337 27.1725 21.3565C27.61 20.3255 27.6821 19.1759 27.3768 18.0984C27.0714 17.0208 26.407 16.08 25.4937 15.4318" fill="#003668"/>
<path d="M31.311 12.6242C30.5648 10.1281 27.0784 5.21161 20.8295 5.21161C14.9225 5.21161 10.8232 9.65292 10.8232 13.6501C10.8054 14.2505 10.8818 14.8499 11.0497 15.4266C10.9745 15.1364 10.9342 14.8382 10.9298 14.5384C10.9298 10.3724 15.1002 7.49 19.3683 7.49C22.154 7.49 24.8257 8.59663 26.7955 10.5665C28.7653 12.5363 29.872 15.2079 29.872 17.9937C29.873 20.1482 29.2729 22.2603 28.1392 24.0924C27.0054 25.9244 25.3829 27.4038 23.4543 28.3642V28.3642C25.9176 27.4713 28.0459 25.8411 29.5494 23.6954C31.053 21.5496 31.8589 18.9927 31.8572 16.3726C31.8615 15.102 31.6728 13.8381 31.2976 12.6242" fill="#E6002D"/>
<path d="M34.5822 11.7372V10.427H41.6527V11.7372H38.646L41.7549 15.5656L40.6934 16.4538L38.1485 13.2916L35.6525 16.6626L34.5466 15.7743L37.6822 11.7416L34.5822 11.7372ZM44.3752 19.7626C44.378 20.1659 44.2915 20.5647 44.1221 20.9307C43.9538 21.289 43.722 21.614 43.4381 21.89C43.1443 22.1721 42.799 22.3953 42.4211 22.5473C41.6225 22.8729 40.7281 22.8729 39.9295 22.5473C39.5488 22.3954 39.2007 22.1723 38.9036 21.89C38.6196 21.615 38.3892 21.2897 38.224 20.9307C38.0543 20.5654 37.9664 20.1676 37.9664 19.7648C37.9664 19.3621 38.0543 18.9642 38.224 18.599C38.3902 18.2392 38.6205 17.9126 38.9036 17.6352C39.2009 17.3543 39.5491 17.1327 39.9295 16.9823C40.7281 16.6568 41.6225 16.6568 42.4211 16.9823C42.7988 17.1329 43.144 17.3545 43.4381 17.6352C43.7212 17.9136 43.9527 18.2399 44.1221 18.599C44.291 18.9635 44.3775 19.3608 44.3752 19.7626ZM42.8696 19.7626C42.8732 19.5421 42.8316 19.3232 42.7476 19.1193C42.6636 18.9154 42.5389 18.7308 42.3811 18.5768C42.2233 18.416 42.0344 18.2889 41.826 18.2034C41.6176 18.1179 41.3939 18.0757 41.1686 18.0793C40.7366 18.1015 40.3295 18.2888 40.0316 18.6024C39.7336 18.9161 39.5675 19.3322 39.5675 19.7648C39.5675 20.1975 39.7336 20.6135 40.0316 20.9272C40.3295 21.2409 40.7366 21.4281 41.1686 21.4503C41.3934 21.4535 41.6166 21.4115 41.8249 21.3268C42.0332 21.2422 42.2223 21.1165 42.3811 20.9573C42.5431 20.8039 42.6713 20.6184 42.7577 20.4128C42.8441 20.2071 42.8868 19.9857 42.883 19.7626H42.8696ZM43.9045 16.6137V13.9489H41.6128V12.6165H43.9045V10.0761H45.4412V16.6226L43.9045 16.6137Z" fill="#333333"/>
<path d="M47.2651 17.8687H58.586V19.2233H53.7006V22.3944H52.1506V19.2189H47.2651V17.8687ZM49.6768 11.8463H56.1478V10.2874H57.6667V16.2121H48.1534V10.2874H49.6546L49.6768 11.8463ZM56.1566 13.1787H49.6546V14.8753H56.1478L56.1566 13.1787Z" fill="#333333"/>
</svg>
